<svg width="14" height="14" viewBox="0 0 14 14" fill="none" xmlns="http://www.w3.org/2000/svg">
<path d="M12.9999 6.27002C12.5799 6.27002 12.2499 6.60002 12.2499 7.02002C12.2399 8.42002 11.6999 9.73002 10.7199 10.71C9.72991 11.7 8.40992 12.25 7.00992 12.25C5.60992 12.25 4.2899 11.7 3.2999 10.71C3.2699 10.68 3.24991 10.65 3.21991 10.62H4.0499C4.4599 10.62 4.7999 10.28 4.7999 9.87002C4.7999 9.46002 4.4599 9.12002 4.0499 9.12002H1.3999C0.989902 9.12002 0.649902 9.46002 0.649902 9.87002V12.52C0.649902 12.93 0.989902 13.27 1.3999 13.27C1.8099 13.27 2.1499 12.93 2.1499 12.52V11.67C2.1799 11.7 2.2099 11.74 2.2399 11.78C3.5099 13.05 5.20992 13.76 7.00992 13.76C8.80992 13.76 10.5099 13.06 11.7799 11.78C13.0399 10.52 13.7399 8.83002 13.7499 7.03002C13.7499 6.61002 13.4099 6.28002 12.9999 6.27002Z" fill="white"/>
<path d="M0.999977 7.65C1.40998 7.65 1.73998 7.32 1.74998 6.91C1.76998 5.54 2.31998 4.25 3.27998 3.28C4.26998 2.29 5.58997 1.74 6.98997 1.74C8.38997 1.74 9.70999 2.29 10.7 3.28C10.73 3.31 10.75 3.34 10.78 3.37H9.94999C9.53999 3.37 9.19999 3.71 9.19999 4.12C9.19999 4.53 9.53999 4.87 9.94999 4.87H12.6C13.01 4.87 13.35 4.53 13.35 4.12V1.48C13.35 1.07 13.01 0.73 12.6 0.73C12.19 0.73 11.85 1.07 11.85 1.48V2.34C11.82 2.31 11.79 2.27 11.76 2.23C10.49 0.96 8.78997 0.25 6.98997 0.25C5.18997 0.25 3.48998 0.95 2.21998 2.23C0.969978 3.47 0.269977 5.13 0.249977 6.89C0.239977 7.3 0.569967 7.64 0.989967 7.65C0.999967 7.65 0.999977 7.65 0.999977 7.65Z" fill="white"/>
</svg>
