<svg width="101" height="24" viewBox="0 0 101 24" fill="none" xmlns="http://www.w3.org/2000/svg">
<path d="M5.346 18.381L10.404 5.78101H12.294L7.128 18.381H5.346ZM5.166 18.381L0 5.78101H1.89L6.93 18.381H5.166Z" fill="#077BFF"/>
<path d="M13.3951 18.381L13.4311 9.38102H15.1231L15.1051 18.381H13.3951ZM14.2591 7.47302C13.9831 7.47302 13.7431 7.37102 13.5391 7.16701C13.3351 6.95101 13.2331 6.70501 13.2331 6.42901C13.2331 6.14101 13.3351 5.90101 13.5391 5.70901C13.7431 5.50501 13.9831 5.40302 14.2591 5.40302C14.5471 5.40302 14.7871 5.50501 14.9791 5.70901C15.1831 5.90101 15.2851 6.14101 15.2851 6.42901C15.2851 6.70501 15.1831 6.95101 14.9791 7.16701C14.7871 7.37102 14.5471 7.47302 14.2591 7.47302Z" fill="#077BFF"/>
<path d="M21.2293 18.597C20.3533 18.597 19.5793 18.399 18.9073 18.003C18.2353 17.595 17.7073 17.037 17.3233 16.329C16.9393 15.621 16.7473 14.805 16.7473 13.881C16.7473 12.957 16.9393 12.141 17.3233 11.433C17.7073 10.725 18.2353 10.173 18.9073 9.77702C19.5913 9.36902 20.3713 9.16501 21.2473 9.16501C22.0633 9.16501 22.7833 9.37501 23.4073 9.79501C24.0433 10.203 24.5353 10.791 24.8833 11.559C25.2433 12.315 25.4233 13.209 25.4233 14.241H23.7133C23.7253 13.473 23.6293 12.825 23.4253 12.297C23.2333 11.769 22.9453 11.373 22.5613 11.109C22.1893 10.833 21.7393 10.695 21.2113 10.695C20.6473 10.695 20.1613 10.827 19.7533 11.091C19.3453 11.343 19.0273 11.709 18.7993 12.189C18.5833 12.657 18.4753 13.233 18.4753 13.917C18.4753 14.553 18.6013 15.105 18.8533 15.573C19.1053 16.029 19.4473 16.389 19.8793 16.653C20.3113 16.905 20.8033 17.031 21.3553 17.031C21.9433 17.031 22.4293 16.893 22.8133 16.617C23.2093 16.341 23.5213 15.987 23.7493 15.555L25.2793 16.257C25.0393 16.725 24.7273 17.139 24.3433 17.499C23.9593 17.847 23.5033 18.117 22.9753 18.309C22.4593 18.501 21.8773 18.597 21.2293 18.597ZM17.8633 14.241L17.8813 12.837H24.4693V14.241H17.8633Z" fill="#077BFF"/>
<path d="M34.7154 18.381L37.7574 9.38102H39.4674L36.4074 18.381H34.7154ZM28.6494 18.381L31.6374 9.38102H33.1854L30.2334 18.381H28.6494ZM28.5234 18.381L25.4634 9.38102H27.1914L30.1614 18.381H28.5234ZM34.7154 18.381L31.7634 9.38102H33.3294L36.2994 18.381H34.7154Z" fill="#077BFF"/>
<path d="M47.4772 18.381V6.82502H49.2593V18.381H47.4772ZM43.5353 7.40102V5.78101H53.2013V7.40102H43.5353Z" fill="#077BFF"/>
<path d="M57.1625 18.597C56.2625 18.597 55.4705 18.399 54.7865 18.003C54.1025 17.595 53.5625 17.037 53.1665 16.329C52.7825 15.621 52.5905 14.805 52.5905 13.881C52.5905 12.957 52.7825 12.141 53.1665 11.433C53.5505 10.725 54.0845 10.173 54.7685 9.77702C55.4525 9.36902 56.2385 9.16501 57.1265 9.16501C58.0145 9.16501 58.8005 9.36902 59.4845 9.77702C60.1685 10.173 60.7025 10.725 61.0865 11.433C61.4705 12.141 61.6625 12.957 61.6625 13.881C61.6625 14.805 61.4705 15.621 61.0865 16.329C60.7025 17.037 60.1685 17.595 59.4845 18.003C58.8125 18.399 58.0385 18.597 57.1625 18.597ZM57.1625 17.031C57.7025 17.031 58.1825 16.899 58.6025 16.635C59.0225 16.359 59.3465 15.987 59.5745 15.519C59.8145 15.051 59.9345 14.505 59.9345 13.881C59.9345 13.257 59.8145 12.711 59.5745 12.243C59.3465 11.775 59.0165 11.409 58.5845 11.145C58.1525 10.869 57.6665 10.731 57.1265 10.731C56.5745 10.731 56.0885 10.869 55.6685 11.145C55.2485 11.409 54.9185 11.775 54.6785 12.243C54.4385 12.711 54.3185 13.257 54.3185 13.881C54.3185 14.505 54.4385 15.051 54.6785 15.519C54.9185 15.987 55.2545 16.359 55.6865 16.635C56.1185 16.899 56.6105 17.031 57.1625 17.031Z" fill="#077BFF"/>
<path d="M67.2439 18.597C66.3439 18.597 65.5519 18.399 64.8679 18.003C64.1839 17.595 63.6439 17.037 63.2479 16.329C62.8639 15.621 62.6719 14.805 62.6719 13.881C62.6719 12.957 62.8639 12.141 63.2479 11.433C63.6319 10.725 64.1659 10.173 64.8499 9.77702C65.5339 9.36902 66.3199 9.16501 67.2079 9.16501C68.0959 9.16501 68.8819 9.36902 69.5659 9.77702C70.2499 10.173 70.7839 10.725 71.1679 11.433C71.5519 12.141 71.7439 12.957 71.7439 13.881C71.7439 14.805 71.5519 15.621 71.1679 16.329C70.7839 17.037 70.2499 17.595 69.5659 18.003C68.8939 18.399 68.1199 18.597 67.2439 18.597ZM67.2439 17.031C67.7839 17.031 68.2639 16.899 68.6839 16.635C69.1039 16.359 69.4279 15.987 69.6559 15.519C69.8959 15.051 70.0159 14.505 70.0159 13.881C70.0159 13.257 69.8959 12.711 69.6559 12.243C69.4279 11.775 69.0979 11.409 68.6659 11.145C68.2339 10.869 67.7479 10.731 67.2079 10.731C66.6559 10.731 66.1699 10.869 65.7499 11.145C65.3299 11.409 64.9999 11.775 64.7599 12.243C64.5199 12.711 64.3999 13.257 64.3999 13.881C64.3999 14.505 64.5199 15.051 64.7599 15.519C64.9999 15.987 65.3359 16.359 65.7679 16.635C66.1999 16.899 66.6919 17.031 67.2439 17.031Z" fill="#077BFF"/>
<path d="M73.2573 18.381V5.78101H74.9673V18.381H73.2573Z" fill="#077BFF"/>
<path d="M90.437 8.53033C90.1441 8.23744 90.1441 7.76256 90.437 7.46967C90.7299 7.17678 91.2048 7.17678 91.4977 7.46967L95.4977 11.4697C95.7906 11.7626 95.7906 12.2374 95.4977 12.5303L91.4977 16.5303C91.2048 16.8232 90.7299 16.8232 90.437 16.5303C90.1441 16.2374 90.1441 15.7626 90.437 15.4697L93.1567 12.75H83.4673C83.0531 12.75 82.7173 12.4142 82.7173 12C82.7173 11.5858 83.0531 11.25 83.4673 11.25H93.1567L90.437 8.53033Z" fill="#077BFF"/>
</svg>
